<?xml version="1.0" standalone="no"?><!DOCTYPE svg PUBLIC "-//W3C//DTD SVG 1.1//EN" "http://www.w3.org/Graphics/SVG/1.1/DTD/svg11.dtd"><svg t="1568194348360" class="icon" viewBox="0 0 1024 1024" version="1.1" xmlns="http://www.w3.org/2000/svg" p-id="3999" xmlns:xlink="http://www.w3.org/1999/xlink" width="64" height="64"><defs><style type="text/css"></style></defs><path d="M286.665143 641.901714l-15.561143-40.886857H138.642286l-15.542857 41.782857c-6.089143 16.292571-11.264 27.300571-15.561143 33.005715-4.297143 5.705143-11.337143 8.557714-21.12 8.557714-8.301714 0-15.634286-3.035429-21.997715-9.124572-6.381714-6.070857-9.563429-12.964571-9.563428-20.662857 0-4.443429 0.731429-9.033143 2.230857-13.787428 1.462857-4.736 3.913143-11.337143 7.314286-19.766857L147.748571 409.417143l8.557715-21.888c3.346286-8.521143 6.893714-15.597714 10.678857-21.211429a43.337143 43.337143 0 0 1 14.884571-13.677714c6.144-3.474286 13.750857-5.229714 22.784-5.229714 9.179429 0 16.859429 1.737143 23.003429 5.229714 6.144 3.474286 11.117714 7.954286 14.884571 13.44 3.785143 5.485714 6.966857 11.373714 9.563429 17.664 2.596571 6.308571 5.888 14.701714 9.874286 25.234286l85.138285 210.249143c6.656 16 10.002286 27.611429 10.002286 34.889142 0 7.552-3.163429 14.482286-9.453714 20.772572-6.290286 6.308571-13.897143 9.453714-22.784 9.453714-5.174857 0-9.618286-0.914286-13.330286-2.779428a27.300571 27.300571 0 0 1-9.325714-7.552c-2.523429-3.2-5.229714-8.082286-8.118857-14.683429-2.889143-6.582857-5.376-12.397714-7.442286-17.444571zM155.977143 551.460571h97.353143l-49.115429-134.473142-48.237714 134.473142z m368.018286 127.341715h-99.565715c-14.372571 0-24.630857-3.218286-30.774857-9.673143-6.144-6.436571-9.216-16.694857-9.216-30.774857V393.435429c0-14.372571 3.145143-24.704 9.435429-31.012572 6.290286-6.290286 16.475429-9.435429 30.555428-9.435428h105.563429c15.561143 0 29.056 0.969143 40.466286 2.889142a86.180571 86.180571 0 0 1 30.665142 11.117715 80.457143 80.457143 0 0 1 20.443429 17.444571 76.982857 76.982857 0 0 1 18.230857 50.340572c0 32.585143-16.310857 56.448-48.896 71.552 42.806857 13.641143 64.219429 40.155429 64.219429 79.561142 0 18.230857-4.662857 34.633143-13.988572 49.243429a84.022857 84.022857 0 0 1-37.796571 32.329143 134.326857 134.326857 0 0 1-34.212572 8.777143c-12.891429 1.700571-27.940571 2.56-45.129142 2.56z m-4.882286-144.694857h-68.681143v95.122285h70.893714c44.617143 0 66.907429-16.073143 66.907429-48.219428 0-16.457143-5.778286-28.379429-17.334857-35.785143-11.556571-7.405714-28.818286-11.117714-51.785143-11.117714z m-68.681143-131.565715v84.242286h60.452571c16.457143 0 29.147429-1.554286 38.125715-4.681143a36.388571 36.388571 0 0 0 20.553143-17.773714c3.693714-6.217143 5.558857-13.184 5.558857-20.882286 0-16.457143-5.851429-27.373714-17.554286-32.786286-11.702857-5.412571-29.568-8.118857-53.577143-8.118857h-53.558857zM969.142857 575.890286c0 10.386286-2.56 21.595429-7.68 33.682285-5.101714 12.068571-13.129143 23.917714-24.100571 35.547429-10.971429 11.648-24.96 21.083429-42.002286 28.342857-17.042286 7.259429-36.900571 10.898286-59.556571 10.898286-17.188571 0-32.822857-1.645714-46.902858-4.900572a131.730286 131.730286 0 0 1-38.345142-15.213714 129.334857 129.334857 0 0 1-31.670858-27.245714 161.792 161.792 0 0 1-21.997714-34.322286 179.035429 179.035429 0 0 1-13.659428-40.557714 221.074286 221.074286 0 0 1-4.571429-45.787429c0-26.221714 3.84-49.700571 11.446857-70.454857 7.643429-20.736 18.56-38.473143 32.786286-53.211428a142.994286 142.994286 0 0 1 50.011428-33.682286A161.92 161.92 0 0 1 834.011429 347.428571c26.386286 0 49.865143 5.266286 70.454857 15.780572 20.589714 10.514286 36.388571 23.515429 47.341714 39.003428 10.971429 15.488 16.457143 30.116571 16.457143 43.885715 0 7.570286-2.669714 14.226286-8.009143 20.004571a25.362286 25.362286 0 0 1-19.346286 8.667429c-8.429714 0-14.774857-2.011429-18.998857-5.997715-4.205714-4.004571-8.923429-10.88-14.116571-20.662857-8.594286-16.146286-18.706286-28.233143-30.336-36.224-11.629714-8.009143-25.965714-12.013714-42.989715-12.013714-27.117714 0-48.713143 10.313143-64.786285 30.902857-16.091429 20.589714-24.137143 49.846857-24.137143 87.771429 0 25.344 3.565714 46.427429 10.678857 63.250285 7.131429 16.822857 17.188571 29.366857 30.226286 37.668572 13.037714 8.283429 28.306286 12.434286 45.787428 12.434286 18.962286 0 34.998857-4.699429 48.109715-14.098286 13.129143-9.417143 23.003429-23.222857 29.677714-41.453714 2.816-8.594286 6.290286-15.597714 10.441143-21.010286 4.150857-5.412571 10.825143-8.100571 20.004571-8.100572 7.862857 0 14.592 2.742857 20.224 8.228572 5.632 5.485714 8.448 12.288 8.448 20.425143z" p-id="4000"></path></svg>