<?xml version="1.0" standalone="no"?><!DOCTYPE svg PUBLIC "-//W3C//DTD SVG 1.1//EN" "http://www.w3.org/Graphics/SVG/1.1/DTD/svg11.dtd"><svg t="1568194294517" class="icon" viewBox="0 0 1024 1024" version="1.1" xmlns="http://www.w3.org/2000/svg" p-id="2959" xmlns:xlink="http://www.w3.org/1999/xlink" width="64" height="64"><defs><style type="text/css"></style></defs><path d="M839.092555 789.967301a18.902041 18.902041 0 0 1-2.954182-37.577201l1.550355-0.293055c-32.793789-75.074048-109.56472-144.050664-281.167271-144.050664-11.81673 0-24.073042 0.737364-36.537329 1.84341V718.457178c0 10.445989-8.460779 18.906768-18.906768 18.906768s-18.906768-8.460779-18.906768-18.906768v-103.580727a619.243914 619.243914 0 0 0-98.929663 25.108187c-23.614553-49.942227-69.05697-78.964116-113.289353-70.34263-28.067097 5.445149-51.312968 24.739506-65.436323 54.356958-13.220557 27.674781-16.912104 61.484809-10.360909 95.195576 0.945338 4.877946 2.108105 9.694445 3.450485 14.421137C115.062607 790.633764 66.221699 851.045614 66.221699 896.781086c0 111.795718 197.46701 127.214187 410.853519 127.214187 205.62528 0 383.230731 0 383.230731-154.784981 0-24.167576-2.438973-52.3812-10.100941-81.147848-4.537624 1.072959-7.586341 1.588168-8.177177 1.682702a20.041174 20.041174 0 0 1-2.935276 0.222155zM236.38261 907.524857c-31.276521 0-56.720304-25.443783-56.720304-56.720304s25.443783-56.720304 56.720304-56.720303 56.720304 25.443783 56.720303 56.720303-25.443783 56.720304-56.720303 56.720304z" fill="#FCD1C0" p-id="2960"></path><path d="M236.38261 794.08425c-31.276521 0-56.720304 25.443783-56.720304 56.720303s25.443783 56.720304 56.720304 56.720304 56.720304-25.443783 56.720303-56.720304-25.443783-56.720304-56.720303-56.720303z" fill="#89714D" p-id="2961"></path><path d="M853.272631 469.918261c-82.480775-93.148918-111.946972-173.743743-85.250616-233.025913 25.996806-57.741269 99.468506-82.717109 131.203516-82.71711 10.450716 0 18.906768-8.460779 18.906767-18.906767s-8.456052-18.906768-18.906767-18.906768c-47.744316 0-133.415607 33.360992-165.670554 104.998735-23.208058 51.511489-26.185873 140.808154 91.395316 273.628198 75.721605 85.524764 107.12102 154.836975 90.837566 200.459006-15.082874 42.3228-68.678834 54.749273-78.099131 56.649403-0.869711 0.165434-1.498361 0.278875-1.550355 0.297781a18.902041 18.902041 0 0 0 5.889458 37.35032c0.590836-0.094534 3.639553-0.609743 8.177177-1.682702 21.823137-5.152094 81.039134-23.945421 101.103941-79.630579 21.695516-60.265323-11.277887-140.510372-98.036318-238.513604z" fill="#E1AD99" p-id="2962"></path><path d="M501.07736 737.363946c10.445989 0 18.906768-8.460779 18.906768-18.906768v-170.16091h-37.813536v170.16091c0 10.445989 8.460779 18.906768 18.906768 18.906768zM519.984128 56.720304h151.254142c15.654804 0 28.360152-12.705348 28.360152-28.360152s-12.705348-28.360152-28.360152-28.360152H330.916449c-15.65953 0-28.360152 12.705348-28.360152 28.360152s12.705348 28.360152 28.360152 28.360152h151.254143v75.627071h37.813536V56.720304z" fill="#2F4556" p-id="2963"></path><path d="M614.517967 548.296268V170.160911h56.720303c10.445989 0 18.906768-8.460779 18.906768-18.906768s-8.460779-18.906768-18.906768-18.906768H330.916449c-10.445989 0-18.906768 8.460779-18.906768 18.906768s8.460779 18.906768 18.906768 18.906768h56.720304v378.135357h226.881214z m-189.067679-37.813536V415.948893h56.720304v-37.813536H425.450288v-37.813536h56.720304v-37.813535H425.450288v-37.813536h56.720304v-37.813536H425.450288V170.160911h151.254143v340.321821H425.450288z" fill="#9AB040" p-id="2964"></path><path d="M576.704431 170.160911H425.450288v56.720303h56.720304v37.813536H425.450288v37.813536h56.720304v37.813535H425.450288v37.813536h56.720304v37.813536H425.450288v94.533839h151.254143z" fill="#C1DB66" p-id="2965"></path></svg>